<?xml version="1.0" encoding="UTF-8"?>
<svg width="212px" height="43px" viewBox="0 0 212 43" version="1.1" xmlns="http://www.w3.org/2000/svg" xmlns:xlink="http://www.w3.org/1999/xlink">
    <!-- Generator: Sketch 54.1 (76490) - https://sketchapp.com -->
    <title>logo</title>
    <desc>Created with Sketch.</desc>
    <defs>
        <polygon id="path-1" points="0.0184883721 0.272038574 211.722983 0.272038574 211.722983 42.411359 0.0184883721 42.411359"></polygon>
    </defs>
    <g id="Symbols" stroke="none" stroke-width="1" fill="none" fill-rule="evenodd">
        <g id="header-desktop" transform="translate(-20.000000, -21.000000)">
            <g id="header">
                <g id="logo" transform="translate(20.000000, 21.000000)">
                    <g id="Group-5" transform="translate(0.000000, 0.193275)">
                        <mask id="mask-2" fill="white">
                            <use xlink:href="#path-1"></use>
                        </mask>
                        <g id="Clip-2"></g>
                        <polyline id="Fill-1" fill="#E5702A" mask="url(#mask-2)" points="182.674977 1.33080786 170.095488 20.8969854 183.177244 41.3519839 211.722983 41.3519839 211.722983 1.33080786 182.674977 1.33080786"></polyline>
                        <polyline id="Fill-3" fill="#E5702A" mask="url(#mask-2)" points="0 1.33080786 0 41.3519839 16.8999128 41.3519839 8.09913953 1.33080786 0 1.33080786"></polyline>
                        <path d="M121.419302,17.9899897 L120.060407,17.9899897 L120.060407,10.4244091 L121.533622,10.4244091 C124.71393,10.4244091 126.808047,11.0251357 126.808047,13.9566694 C126.808047,16.9375821 124.54661,17.9899897 121.419302,17.9899897 Z M84.5645814,31.9754383 C82.0778953,31.97665 80.2136512,30.5846486 80.2096453,21.3438194 C80.2096453,12.314441 81.9629593,10.7037182 84.5621163,10.7037182 C87.1581919,10.7037182 88.9145872,12.314441 88.9158198,21.3410929 C88.9170523,30.5846486 87.054657,31.9754383 84.5645814,31.9754383 Z M170.095488,20.8930472 L182.674977,1.31111687 L166.539558,1.31111687 L160.902762,12.6864492 L155.601529,1.31323744 L138.565727,1.31808445 L150.921814,20.8945619 L142.238442,34.3559273 C141.782395,31.098129 141.609221,28.2544474 141.066587,26.2008288 C140.281756,23.1487256 138.143576,21.4295509 134.191994,21.0963188 L134.191994,20.9830199 C140.281756,19.5419425 142.252308,16.0657257 142.252308,11.4698491 C142.252308,3.93123004 137.121169,1.32171971 128.386953,1.32171971 L104.258395,1.33080786 L104.258395,12.6273763 C101.588366,5.03756064 95.0265349,0.270826821 84.5578023,0.272038574 C76.013093,0.272038574 70.0693895,3.450467 66.7211453,8.74431342 L68.3549012,1.33201961 L53.9157907,1.33292843 L50.4710988,26.4761997 L50.3617093,26.4761997 L46.5796047,1.33292843 L29.8793663,1.33444312 L26.0954128,26.4761997 L25.9881802,26.4761997 L22.5391744,1.33444312 L8.09759884,1.33444312 L16.9029942,41.361375 L34.3929942,41.361375 L38.1630814,15.3989586 L38.2820233,15.3989586 L42.0712151,41.361375 L59.5550523,41.3607691 L63.5399128,23.2111309 C64.2199767,34.6561391 71.2116628,42.411359 84.5645814,42.411359 C95.0360872,42.4095414 101.597302,37.6370518 104.267023,30.0493567 L104.267023,41.3474398 L120.061948,41.3474398 L120.061948,27.0875291 L121.924651,27.0875291 C124.550616,27.0875291 125.568093,27.8600217 125.908587,29.8569909 C126.472791,33.3035197 126.977523,38.352592 127.939843,41.3474398 L137.722041,41.3447133 L137.720192,41.3495604 L153.859924,41.3495604 L160.112692,29.2638377 L166.149762,41.3474398 L183.184331,41.3447133 L170.095488,20.8930472 L170.095488,20.8930472 Z" id="Fill-4" fill="#FFFFFE" mask="url(#mask-2)"></path>
                    </g>
                    <path d="M5.63826229,35.3210632 L6.5464552,35.3210632 C6.96098061,35.3309648 7.19123932,35.1749399 7.19123932,34.7185673 C7.19123932,34.2690958 6.65605954,34.2462922 6.30723701,34.2462922 L5.63826229,34.2462922 L5.63826229,35.3210632 Z M4.54878917,33.396257 L6.32844112,33.396257 C7.62129449,33.396257 8.35268694,33.710707 8.35268694,34.8427871 C8.35268694,35.7309284 7.82049366,36.0609809 7.13987161,36.0978868 L8.166927,38.0085907 L6.99323475,38.0085907 L6.0757837,36.1713985 L5.63826229,36.1713985 L5.63826229,38.0085907 L4.54878917,38.0085907 L4.54878917,33.396257 Z M6.34188034,38.8223202 C8.04955777,38.8223202 9.37167879,37.413296 9.37167879,35.6955228 C9.37167879,33.98105 8.04955777,32.5723259 6.34188034,32.5723259 C4.63061912,32.5723259 3.31387379,33.98105 3.31387379,35.6955228 C3.31387379,37.413296 4.63061912,38.8223202 6.34188034,38.8223202 Z M6.34188034,31.1449988 C8.85173014,31.1449988 10.8717949,33.1775222 10.8717949,35.6955228 C10.8717949,38.2183241 8.85173014,40.2484471 6.34188034,40.2484471 C3.83382244,40.2484471 1.81196581,38.2183241 1.81196581,35.6955228 C1.81196581,33.1775222 3.83382244,31.1449988 6.34188034,31.1449988 L6.34188034,31.1449988 Z" id="Fill-6" fill="#FFFFFE"></path>
                </g>
            </g>
        </g>
    </g>
</svg>